<?xml version="1.0" standalone="no"?>
<!DOCTYPE svg PUBLIC "-//W3C//DTD SVG 20010904//EN"
 "http://www.w3.org/TR/2001/REC-SVG-20010904/DTD/svg10.dtd">
<svg version="1.0" xmlns="http://www.w3.org/2000/svg"
 width="582.000000pt" height="582.000000pt" viewBox="0 0 582.000000 582.000000"
 preserveAspectRatio="xMidYMid meet">
<metadata>
Created by potrace 1.14, written by Peter Selinger 2001-2017
</metadata>
<g transform="translate(0.000000,582.000000) scale(0.100000,-0.100000)"
fill="#000000" stroke="none">
<path d="M135 5531 c-46 -16 -72 -35 -100 -74 l-30 -42 -3 -2225 c-2 -1224 0
-2244 3 -2266 7 -49 61 -118 109 -139 26 -11 477 -13 2791 -14 l2761 -1 50 25
c39 20 57 36 77 74 l27 48 0 2225 c0 1224 -3 2239 -6 2257 -9 45 -75 115 -122
129 -30 9 -702 12 -2788 11 -1512 -1 -2758 -4 -2769 -8z m5302 -375 c7 -6 7
-3995 1 -4002 -6 -5 -5049 -6 -5055 0 -3 2 -5 2704 -3 3848 l0 158 178 2 c328
5 4874 0 4879 -6z"/>
<path d="M1050 4728 c-30 -11 -84 -22 -120 -25 -82 -6 -119 -20 -125 -47 -3
-11 -4 -148 -2 -302 3 -262 5 -285 25 -324 l21 -42 -25 -38 -25 -37 20 -53
c15 -40 17 -57 9 -75 -8 -18 -7 -31 5 -53 13 -28 13 -33 -4 -61 -20 -34 -20
-43 6 -176 l18 -90 -27 -39 c-28 -42 -28 -41 3 -165 26 -103 26 -105 0 -141
-21 -28 -21 -29 -4 -72 22 -55 24 -78 7 -105 -11 -18 -11 -25 2 -45 14 -21 14
-27 1 -44 -20 -30 -15 -64 16 -102 25 -31 26 -36 13 -60 -18 -35 -18 -57 1
-72 22 -18 19 -33 -15 -65 -35 -34 -37 -46 -10 -70 12 -10 29 -33 40 -50 l20
-32 -30 -60 c-39 -77 -31 -114 36 -177 31 -28 27 -49 -14 -73 -20 -12 -34 -33
-49 -77 l-22 -61 35 -47 c40 -56 41 -67 13 -96 -11 -13 -22 -31 -24 -41 -7
-37 59 -85 131 -97 33 -5 46 -1 83 24 40 27 71 32 71 12 0 -4 18 -15 41 -25
39 -18 44 -18 109 -1 95 24 120 26 159 10 18 -8 54 -14 79 -14 38 0 49 5 77
34 40 43 47 67 29 102 -8 14 -14 39 -14 56 0 16 -11 50 -25 76 -29 54 -30 65
-10 82 27 22 17 48 -25 70 -36 18 -39 23 -29 41 6 11 26 27 46 35 34 15 35 16
30 62 -3 26 -1 64 5 85 12 40 -3 87 -28 87 -26 0 -24 21 3 46 34 31 26 49 -38
81 -48 24 -57 44 -21 50 28 4 78 29 87 43 13 22 -6 60 -38 76 -17 9 -34 18
-36 20 -1 1 6 13 18 25 29 31 27 40 -15 68 -40 28 -58 56 -50 78 5 13 11 12
42 -6 23 -14 44 -19 60 -15 22 6 24 11 25 73 0 36 0 91 -2 121 -1 30 -2 66 -1
80 0 23 0 129 1 595 0 99 0 351 1 560 1 274 -2 388 -10 407 -22 48 -83 60
-160 33 l-43 -15 -45 35 c-57 44 -88 46 -97 5 -4 -16 -4 -34 -1 -39 4 -5 2
-12 -4 -16 -5 -3 -24 10 -41 30 -30 34 -78 66 -96 64 -4 0 -33 -10 -63 -21z
m208 -311 c14 -17 0 -39 -20 -32 -10 4 -14 14 -11 26 6 22 16 24 31 6z m192
-157 c0 -5 -2 -10 -4 -10 -3 0 -8 5 -11 10 -3 6 -1 10 4 10 6 0 11 -4 11 -10z
m-192 -148 c2 -7 -3 -12 -12 -12 -9 0 -16 7 -16 16 0 17 22 14 28 -4z m-171
-133 c17 -15 17 -22 -8 -75 -15 -34 -17 -49 -9 -59 12 -15 -2 -28 -33 -30 -14
-1 -17 3 -13 19 19 63 17 71 -19 108 -19 20 -35 39 -35 42 0 17 94 13 117 -5z
m213 5 c0 -2 -12 -4 -26 -4 -14 0 -23 4 -20 9 6 8 46 4 46 -5z m184 -16 c17
-25 21 -58 7 -58 -12 0 -51 62 -45 72 9 14 22 9 38 -14z m16 -132 c0 -3 -4 -8
-10 -11 -5 -3 -10 -1 -10 4 0 6 5 11 10 11 6 0 10 -2 10 -4z m1 -146 c27 -15
25 -42 -3 -38 -15 2 -24 11 -26 26 -4 25 1 27 29 12z m-434 -15 c11 -8 26 -35
32 -62 12 -44 11 -49 -8 -64 -12 -10 -29 -15 -40 -12 -17 4 -19 14 -19 79 0
41 3 74 7 74 4 0 16 -7 28 -15z m243 -180 c0 -29 5 -57 10 -60 30 -18 -3 -65
-45 -65 -15 0 -16 8 -11 58 5 51 4 61 -14 77 -22 20 -26 45 -9 62 9 9 19 8 40
-3 27 -13 29 -19 29 -69z m203 -111 c-6 -17 -35 -18 -50 -3 -9 9 -8 15 0 24
15 16 58 -2 50 -21z m-452 -7 c-13 -13 -26 -3 -16 12 3 6 11 8 17 5 6 -4 6
-10 -1 -17z m259 -142 c11 -14 11 -21 -4 -47 -12 -20 -16 -41 -13 -63 4 -25 1
-38 -13 -50 -20 -18 -40 -13 -40 9 0 8 7 19 15 26 20 17 19 48 -5 94 -18 37
-18 40 -2 52 18 13 40 6 62 -21z m200 -107 c23 -25 25 -39 8 -56 -17 -17 -54
-15 -72 4 -14 14 -14 18 -1 45 18 35 37 37 65 7z m-430 -27 c15 -29 12 -41 -9
-41 -32 0 -51 11 -51 29 0 36 42 44 60 12z m218 -131 c24 -31 28 -55 12 -65
-14 -8 -13 -41 2 -65 10 -16 10 -24 0 -40 -16 -27 -15 -82 3 -106 18 -24 19
-55 2 -78 -12 -17 -15 -15 -41 19 -25 33 -27 39 -16 66 9 22 10 40 1 73 -8 31
-8 53 -1 71 7 19 7 39 -1 65 -12 38 -6 90 9 90 5 0 18 -13 30 -30z m28 -436
c19 -29 13 -39 -32 -48 -42 -9 -54 17 -23 51 28 29 35 29 55 -3z m-276 -14 c0
-5 -4 -10 -10 -10 -5 0 -10 5 -10 10 0 6 5 10 10 10 6 0 10 -4 10 -10z m57
-153 c-2 -6 -13 -12 -25 -13 -22 -4 -37 10 -28 25 8 12 58 1 53 -12z m258 -7
c14 -15 14 -19 1 -29 -19 -16 -53 -5 -67 21 -21 39 32 45 66 8z m-254 -130
c37 -21 20 -150 -21 -150 -20 0 -20 0 0 37 l19 36 -24 29 c-41 48 -26 75 26
48z m260 -121 c16 -17 29 -42 29 -55 0 -20 -5 -24 -29 -24 -30 0 -91 42 -91
63 0 16 31 47 48 47 7 0 27 -14 43 -31z m-243 -181 c2 -13 -3 -18 -17 -18 -12
0 -21 2 -21 4 0 2 -3 12 -6 21 -5 13 -2 16 17 13 13 -1 25 -11 27 -20z m250
-136 c21 -16 22 -20 8 -31 -20 -17 -46 1 -46 30 0 23 8 24 38 1z"/>
<path d="M2319 4730 c-14 -4 -41 -14 -60 -23 -19 -9 -59 -25 -91 -37 -31 -11
-62 -27 -68 -35 -18 -22 -19 -191 -1 -227 12 -26 12 -33 0 -56 -29 -54 -11
-120 41 -147 58 -30 98 -17 109 36 l8 34 12 -43 c18 -63 45 -76 154 -75 62 1
102 -3 126 -13 43 -18 149 -21 180 -5 16 9 27 9 47 -2 l26 -14 -31 -35 c-37
-42 -38 -59 -10 -98 18 -24 21 -38 17 -89 -5 -70 -31 -114 -69 -119 -40 -5
-81 -23 -151 -69 -69 -44 -89 -50 -131 -34 -17 7 -35 4 -66 -10 -40 -18 -126
-19 -153 -3 -5 4 -29 1 -53 -6 l-43 -12 1 -114 c1 -97 3 -117 19 -131 24 -21
23 -46 -3 -69 -19 -17 -20 -27 -17 -144 3 -112 6 -131 30 -180 15 -31 43 -74
63 -97 29 -34 40 -41 62 -37 15 3 33 10 40 16 8 6 15 9 16 7 20 -29 30 -82 33
-180 2 -63 6 -130 9 -149 9 -52 37 -91 68 -97 17 -3 24 -9 17 -13 -15 -9 -2
-58 19 -69 9 -5 41 -12 71 -16 64 -9 100 -21 100 -34 0 -4 -23 -31 -51 -58
-58 -57 -59 -66 -5 -127 41 -46 66 -94 66 -130 0 -14 11 -49 24 -78 13 -29 26
-65 30 -80 3 -15 26 -44 50 -64 40 -33 43 -39 33 -61 -9 -21 -6 -28 30 -65
l41 -41 88 3 c49 2 127 2 173 2 51 -1 97 4 117 13 30 12 39 12 70 -1 59 -25
197 -20 232 8 17 14 15 63 -3 78 -28 23 -28 50 -1 75 18 17 26 34 26 59 0 41
-34 139 -55 156 -7 6 -26 44 -41 83 -33 87 -80 183 -94 192 -9 6 -120 27 -147
28 -18 1 -16 7 17 50 28 37 29 47 10 92 -5 11 -11 42 -13 68 -3 32 -12 57 -28
73 -17 18 -23 37 -24 77 -2 88 -71 196 -132 205 -41 5 -63 21 -64 45 -1 48 -8
80 -23 102 -15 23 -15 53 1 78 4 6 9 26 9 42 3 76 -6 71 100 50 24 -5 41 -1
72 20 22 15 43 34 46 42 8 19 -18 49 -58 70 l-28 15 34 23 c48 32 67 33 126 6
l50 -24 36 23 c45 27 54 44 51 99 -1 26 6 58 17 79 10 20 18 44 18 54 0 10 6
19 13 20 6 0 17 2 22 3 6 2 15 3 21 4 27 3 20 32 -22 87 -30 40 -43 67 -42 84
3 27 17 30 76 19 28 -6 35 -3 49 17 10 16 13 33 8 51 -4 16 -9 46 -11 68 -3
22 -6 40 -7 41 -1 1 -16 4 -33 7 -48 7 -93 35 -114 70 -18 29 -18 33 -3 49 23
26 64 22 96 -8 36 -33 67 -25 67 17 0 22 -9 35 -41 59 -23 16 -45 27 -49 25
-5 -3 -18 25 -30 62 -29 89 -77 179 -108 204 -33 25 -61 24 -94 -5 -52 -44
-117 -1 -90 59 24 53 14 72 -50 99 -34 15 -36 14 -86 -19 l-51 -35 -70 36
c-63 33 -76 37 -142 35 -40 -1 -76 -4 -80 -6 -4 -3 -37 11 -73 30 l-65 34 -27
-32 c-31 -37 -40 -37 -108 7 -39 25 -57 31 -77 26z m-71 -273 c-2 -32 -8 -52
-17 -55 -10 -4 -12 0 -6 14 9 24 9 30 0 79 -8 37 -7 39 9 26 13 -11 16 -27 14
-64z m729 -19 c15 -18 31 -76 37 -126 7 -64 -19 -83 -96 -73 -14 2 -8 34 8 52
21 24 21 65 -1 89 -20 22 -13 56 13 63 28 8 29 7 39 -5z m246 -159 c10 -15 20
-49 23 -79 2 -30 11 -61 19 -70 14 -15 13 -19 -4 -34 -28 -26 -76 -36 -116
-25 -19 6 -35 12 -35 15 0 3 20 24 45 47 47 45 52 71 21 106 -15 17 -16 37 -2
59 10 17 26 11 49 -19z m-675 -8 c11 -7 11 -9 -2 -14 -19 -7 -46 1 -46 14 0
11 31 11 48 0z m437 -117 c9 -4 27 -22 39 -41 22 -31 23 -37 10 -63 -10 -20
-12 -35 -5 -53 11 -28 3 -39 -36 -51 -41 -13 -60 -14 -74 -6 -12 8 -11 14 4
39 22 37 21 60 -3 91 -27 35 -25 57 8 74 31 18 35 18 57 10z m281 -187 l36
-33 -27 -52 c-15 -29 -32 -55 -38 -59 -15 -9 -34 23 -43 75 -17 105 7 128 72
69z m-274 -127 c16 -17 26 -35 23 -40 -3 -5 -6 -37 -6 -70 l-1 -60 -35 0 -34
0 20 26 21 26 -40 50 c-38 48 -39 51 -24 74 21 32 41 30 76 -6z m271 -172 c8
-27 1 -38 -23 -38 -21 0 -40 28 -33 48 8 21 50 14 56 -10z m-274 -140 c8 -13
15 -40 16 -61 2 -28 11 -47 33 -70 l32 -33 -43 -15 c-23 -8 -49 -14 -57 -14
-8 1 -25 3 -37 3 -31 3 -29 16 9 58 38 42 42 58 22 101 -23 48 -2 74 25 31z
m-375 -135 l36 -16 -50 -18 c-60 -21 -89 -25 -112 -14 -26 11 -22 23 15 45 39
24 66 25 111 3z m-280 -9 c18 -17 20 -30 7 -38 -22 -14 -59 23 -45 45 8 13 21
11 38 -7z m444 2 c24 -8 29 -28 10 -43 -17 -13 -27 -11 -77 12 l-43 19 33 12
c36 12 42 12 77 0z m-435 -254 c18 -20 24 -78 13 -139 -9 -49 -23 -65 -21 -25
1 15 -12 51 -28 80 -25 45 -28 58 -18 78 13 28 32 31 54 6z m243 -217 c-8 -22
-28 -15 -43 15 -9 19 -9 26 0 32 17 11 51 -26 43 -47z m-11 -125 c-10 -11 -21
-20 -25 -20 -16 0 -18 29 -3 50 14 20 17 20 31 6 14 -14 14 -17 -3 -36z m14
-116 c25 -32 26 -38 6 -57 -17 -17 -30 -17 -63 2 -19 10 -23 19 -19 46 3 18 8
38 11 44 9 15 38 -1 65 -35z m421 17 c0 -5 11 -23 24 -39 17 -19 23 -36 19
-51 -3 -12 0 -42 7 -67 7 -24 10 -47 7 -50 -8 -9 -117 -12 -122 -4 -3 5 16 27
42 50 l48 42 -28 49 c-30 55 -34 79 -12 79 8 0 15 -4 15 -9z m-370 -176 c9 -9
11 -18 5 -24 -13 -12 -86 -35 -107 -34 -10 0 -27 1 -38 2 -31 2 -24 18 21 51
45 32 89 34 119 5z m130 10 c0 -8 -7 -15 -15 -15 -16 0 -20 12 -8 23 11 12 23
8 23 -8z m87 -160 c14 -39 -69 -71 -117 -45 -46 24 -7 58 68 59 30 1 44 -4 49
-14z m178 -25 c3 -5 1 -10 -4 -10 -6 0 -11 5 -11 10 0 6 2 10 4 10 3 0 8 -4
11 -10z m-5 -242 c37 -40 27 -51 -58 -63 -23 -3 -75 -15 -114 -25 -65 -17 -74
-17 -90 -4 -22 21 -15 51 19 77 22 18 45 23 118 28 49 3 93 6 97 7 4 1 16 -8
28 -20z m279 11 c37 -13 59 -45 42 -62 -7 -7 -41 -14 -77 -17 -54 -5 -67 -3
-74 10 -12 23 10 63 40 71 36 10 34 10 69 -2z m-239 -335 c0 -16 -9 -17 -29
-5 -8 5 -11 16 -7 26 5 14 9 15 21 5 8 -7 15 -19 15 -26z"/>
<path d="M4095 4662 c-33 -7 -47 -23 -34 -38 8 -10 8 -18 1 -26 -11 -14 -13
-239 -3 -291 6 -27 12 -33 41 -37 29 -4 36 -10 38 -32 4 -35 -25 -39 -30 -5
-2 16 -10 22 -28 22 -28 0 -28 1 -15 -118 6 -63 9 -70 38 -88 24 -14 27 -19
12 -18 -59 6 -67 -8 -39 -63 15 -29 15 -33 0 -43 -8 -7 -15 -25 -15 -41 0 -16
-3 -42 -7 -58 -6 -23 -3 -32 17 -47 25 -19 23 -29 -7 -33 -17 -3 -19 -15 -19
-126 0 -133 9 -164 41 -144 11 6 34 8 59 3 49 -9 236 -6 253 5 7 4 12 15 11
24 -1 10 3 29 10 43 11 22 10 31 -8 62 -16 28 -17 37 -7 37 26 0 26 29 0 47
-15 9 -39 28 -54 42 -27 23 -28 26 -15 52 14 25 13 57 0 79 -4 6 -2 16 3 23
11 13 13 106 3 122 -3 6 -6 24 -6 40 0 27 -3 30 -37 33 -56 5 -45 35 12 36 23
1 25 5 25 46 0 25 4 51 9 58 5 8 4 18 -3 25 -6 6 -11 21 -11 34 0 24 -6 27
-53 24 -25 -1 -28 2 -25 26 3 24 -1 28 -25 31 -36 4 -45 -20 -23 -64 9 -19 16
-37 16 -39 0 -3 -16 -5 -36 -5 -28 0 -34 3 -26 13 6 7 10 37 10 67 -1 93 -2
91 30 74 15 -7 35 -14 45 -14 9 0 17 -6 17 -13 0 -22 34 -47 63 -47 32 0 37
25 7 33 -15 4 -19 12 -17 36 2 35 5 37 32 17 37 -27 66 -1 55 49 -6 27 -3 36
14 51 l21 19 -21 3 c-16 2 -23 12 -26 33 -4 25 0 32 18 40 33 12 20 36 -22 41
-43 5 -55 -2 -52 -33 2 -16 -2 -24 -12 -24 -10 0 -14 8 -13 23 4 33 -31 43
-125 33 -8 0 -12 -11 -10 -28 2 -15 -2 -28 -10 -31 -9 -3 -13 3 -10 18 4 26
-27 49 -57 42z m169 -81 c14 -25 13 -27 -10 -29 -18 -1 -25 4 -30 23 -7 27 2
48 17 40 5 -4 15 -19 23 -34z m69 -41 c6 -25 -5 -26 -27 -1 -13 15 -14 20 -4
24 18 6 25 1 31 -23z m-70 -52 c8 -28 -4 -47 -14 -22 -11 27 -11 44 0 44 5 0
11 -10 14 -22z m-156 -110 c1 -11 8 -25 14 -29 17 -10 -7 -40 -27 -32 -10 4
-11 10 -3 24 5 11 7 29 4 39 -4 11 -3 20 2 20 5 0 9 -10 10 -22z m113 -199 c0
-5 -7 -9 -15 -9 -15 0 -20 12 -9 23 8 8 24 -1 24 -14z m-72 -80 c-7 -5 -22 -9
-32 -9 -18 0 -18 1 -1 20 14 16 21 17 32 8 11 -9 11 -13 1 -19z m73 -21 c7
-18 14 -35 16 -38 2 -3 -8 -7 -22 -8 -25 -2 -34 11 -14 23 7 5 2 16 -12 31
-22 24 -22 24 -2 24 14 0 25 -10 34 -32z m78 -59 c10 -23 10 -34 2 -42 -8 -8
-14 -3 -23 21 -7 18 -17 32 -23 32 -10 0 15 20 25 20 3 0 11 -14 19 -31z m-45
-87 c6 -10 -30 -9 -40 1 -4 4 2 7 14 7 11 0 23 -4 26 -8z m-20 -77 c3 -8 1
-15 -3 -15 -5 0 -11 7 -15 15 -3 8 -1 15 3 15 5 0 11 -7 15 -15z m26 -216 c0
-6 -4 -7 -10 -4 -5 3 -10 11 -10 16 0 6 5 7 10 4 6 -3 10 -11 10 -16z m90 -94
c0 -8 -7 -15 -15 -15 -9 0 -12 6 -9 15 4 8 10 15 15 15 5 0 9 -7 9 -15z m-80
-15 c0 -5 -4 -10 -9 -10 -6 0 -13 5 -16 10 -3 6 1 10 9 10 9 0 16 -4 16 -10z"/>
<path d="M4589 4643 c0 -4 -2 -16 -4 -26 -5 -27 22 -49 45 -37 15 8 22 6 33
-10 17 -24 17 -62 1 -67 -6 -2 -14 5 -17 16 -7 30 -42 44 -61 26 -13 -14 -13
-19 0 -50 8 -19 12 -35 9 -35 -3 0 -1 -9 5 -20 14 -26 36 -26 43 0 4 15 11 18
32 14 37 -7 58 12 44 38 -7 13 -7 24 -1 30 7 7 19 -3 36 -28 14 -21 26 -42 26
-45 0 -13 -33 -19 -46 -8 -15 13 -34 4 -34 -17 0 -9 10 -14 28 -14 23 0 31 -8
49 -47 15 -33 19 -52 12 -64 -17 -32 -11 -58 15 -65 39 -9 45 1 31 51 -13 41
-13 46 4 55 13 7 22 6 29 -3 16 -19 18 -61 5 -72 -10 -8 -9 -19 8 -53 17 -34
26 -42 41 -38 31 8 48 -4 48 -33 0 -35 8 -43 31 -30 20 10 26 39 8 39 -7 0 -8
12 -4 33 9 41 9 40 45 39 16 0 31 5 31 11 5 40 4 73 -3 83 -4 5 -6 23 -5 40 2
28 0 29 -41 30 -24 1 -45 3 -47 5 -2 2 -1 16 2 32 6 32 29 36 38 7 6 -20 25
-26 38 -14 12 12 -35 83 -57 86 -11 2 -27 15 -34 30 -9 20 -18 26 -38 23 -20
-2 -30 4 -43 26 -12 21 -22 27 -39 24 -13 -2 -33 5 -50 18 -35 28 -129 32
-124 5 1 -10 -6 -19 -18 -23 -24 -8 -35 -1 -35 23 0 17 -34 31 -36 15z m165
-56 c8 -13 7 -20 -4 -27 -19 -12 -27 -5 -27 25 0 28 14 29 31 2z m96 -48 c0
-36 -25 -39 -34 -4 -8 31 0 46 19 38 9 -3 15 -18 15 -34z m94 -57 c-4 -15 -10
-31 -14 -35 -4 -5 -2 -21 6 -35 7 -15 15 -35 18 -44 4 -13 16 -18 40 -18 30 0
34 -3 38 -30 6 -42 -15 -57 -32 -25 -8 14 -21 24 -29 23 -20 -4 -26 -50 -11
-79 10 -17 9 -23 -1 -30 -30 -19 -40 4 -39 83 0 15 -7 31 -17 37 -10 6 -12 11
-5 11 6 0 12 7 12 15 0 16 -6 18 -55 19 -25 1 -30 5 -31 26 -1 14 -3 32 -5 40
-7 25 25 16 43 -12 12 -19 23 -26 34 -21 13 5 15 15 10 55 -7 59 -2 72 25 58
15 -8 18 -17 13 -38z"/>
<path d="M4711 4198 c-6 -10 -9 -23 -6 -27 11 -19 -27 -19 -42 -1 -20 23 -39
26 -45 8 -3 -7 -19 -13 -37 -14 -49 -3 -54 -14 -31 -69 21 -49 17 -64 -17 -65
-22 0 -14 -30 11 -41 13 -6 26 -20 29 -29 3 -11 12 -17 23 -16 15 3 19 12 19
50 0 46 0 46 17 23 10 -12 17 -33 15 -47 -1 -19 3 -25 18 -25 14 0 21 8 23 28
4 37 14 34 40 -12 15 -27 19 -40 10 -43 -7 -3 -3 -12 12 -26 18 -17 27 -19 42
-11 25 13 39 1 15 -12 -21 -12 -22 -26 -2 -45 8 -9 15 -30 15 -47 l0 -32 -18
23 c-11 14 -24 21 -34 17 -20 -8 -44 -58 -29 -63 17 -6 13 -29 -5 -29 -9 0
-19 9 -22 19 -6 23 -57 25 -66 2 -4 -12 -10 -13 -19 -6 -8 7 -18 6 -30 -3 -16
-11 -18 -22 -13 -59 4 -27 2 -55 -4 -66 -8 -16 -7 -26 5 -42 8 -13 15 -30 15
-40 0 -19 1 -19 67 -20 51 0 63 6 56 32 -7 27 23 27 32 0 10 -33 49 -22 57 15
2 12 10 18 19 16 65 -19 75 -15 144 54 49 48 66 71 62 86 -3 10 -1 21 4 24 4
3 4 16 -1 29 -8 21 -5 25 16 30 30 8 29 37 -1 46 -11 3 -20 12 -19 20 0 8 -3
22 -7 30 -4 9 -1 22 7 32 14 15 13 17 -5 23 -23 7 -28 21 -9 27 7 3 9 11 3 24
-4 10 -7 27 -6 37 3 25 -27 33 -44 11 -15 -19 -15 -19 -30 0 -8 11 -15 29 -15
41 0 12 -5 26 -10 31 -8 8 -6 15 4 23 12 10 13 18 5 33 -9 16 -17 19 -46 13
-32 -6 -35 -4 -46 24 -17 45 -34 39 -33 -11 1 -41 3 -43 33 -43 27 0 35 -5 49
-38 19 -41 19 -42 -13 -51 -20 -7 -23 -4 -23 22 0 39 -21 57 -50 42 -34 -18
-50 -5 -50 39 0 22 5 43 10 46 14 8 5 21 -18 27 -12 3 -24 -2 -31 -14z m-35
-89 c39 2 42 0 48 -30 5 -28 9 -31 37 -27 34 5 52 -15 42 -50 -6 -23 -23 -30
-23 -10 0 25 -32 47 -61 41 -22 -4 -30 -1 -35 13 -12 41 -22 49 -53 47 -29 -2
-39 6 -25 20 4 4 12 4 17 0 6 -4 30 -6 53 -4z m213 -157 c-1 -26 3 -58 10 -70
13 -25 7 -72 -9 -72 -13 0 -21 34 -22 93 -1 29 -5 60 -9 69 -8 15 0 25 24 27
4 1 7 -20 6 -47z m103 -57 c-4 -31 -24 -51 -41 -41 -5 4 -7 81 -2 93 1 2 11
-2 24 -8 19 -8 22 -17 19 -44z m-205 39 c-3 -3 -12 -4 -19 -1 -8 3 -5 6 6 6
11 1 17 -2 13 -5z m196 -121 c2 -5 7 -20 11 -35 5 -21 3 -28 -9 -28 -8 0 -15
3 -16 8 0 4 -3 19 -5 35 -4 24 9 38 19 20z m-71 -74 c1 -37 -1 -49 -11 -49
-11 0 -24 67 -15 81 9 16 24 -3 26 -32z m82 -61 c8 -32 7 -40 -3 -34 -11 7
-21 56 -11 56 4 0 10 -10 14 -22z m-167 -30 c-3 -8 -6 -5 -6 6 -1 11 2 17 5
13 3 -3 4 -12 1 -19z m-67 -40 c0 -11 -7 -18 -20 -18 -15 0 -20 7 -20 28 0 16
3 32 7 36 10 9 33 -23 33 -46z m155 22 c3 -5 1 -10 -4 -10 -6 0 -11 5 -11 10
0 6 2 10 4 10 3 0 8 -4 11 -10z m-85 -55 c0 -8 -4 -15 -10 -15 -5 0 -10 7 -10
15 0 8 5 15 10 15 6 0 10 -7 10 -15z"/>
<path d="M3922 3369 c-24 -9 -39 -29 -47 -60 -5 -20 0 -33 18 -55 l25 -29 629
-1 c382 0 637 3 650 9 27 12 46 56 38 89 -13 52 -8 52 -676 52 -341 1 -628 -2
-637 -5z"/>
<path d="M3885 3095 c1 -19 5 -38 8 -41 3 -3 34 -16 68 -29 35 -12 64 -26 66
-31 2 -5 -30 -21 -70 -36 l-73 -28 0 -40 c0 -47 -12 -48 146 18 113 48 115 49
118 83 l3 35 -126 52 c-69 29 -129 52 -134 52 -5 0 -8 -16 -6 -35z"/>
<path d="M4170 2774 c0 -8 34 -12 120 -12 86 1 120 4 120 12 0 9 -34 12 -120
12 -85 0 -120 -4 -120 -12z"/>
<path d="M570 626 c0 -4 13 -25 28 -45 16 -20 68 -93 116 -163 48 -71 92 -129
99 -129 34 -3 138 -1 149 4 7 2 56 68 108 145 52 78 98 140 102 139 4 -1 52
-67 106 -146 l98 -145 81 0 81 -1 53 78 c30 43 60 85 67 95 7 9 37 52 67 94
l54 76 -65 4 -64 3 -102 -147 -101 -147 -99 142 c-108 156 -110 157 -213 149
-39 -4 -42 -6 -135 -143 -82 -120 -120 -161 -120 -131 0 4 -41 66 -90 137
l-90 130 -65 5 c-36 3 -65 1 -65 -4z"/>
<path d="M2230 632 c-6 -2 -10 -70 -10 -173 0 -154 2 -169 18 -170 56 -4 390
1 457 6 262 20 385 107 315 222 -50 83 -203 112 -608 116 -89 1 -167 1 -172
-1z m454 -47 c88 -10 137 -27 172 -60 42 -40 45 -80 8 -124 -44 -53 -142 -72
-380 -75 l-134 -2 0 132 c0 97 3 133 13 137 16 5 259 0 321 -8z"/>
<path d="M3659 630 c-3 -14 -4 -317 -1 -330 3 -15 24 -17 113 -11 13 1 16 13
14 71 0 38 2 75 5 81 5 6 74 11 191 12 166 2 184 4 187 20 3 16 -11 17 -190
17 l-193 0 0 50 c-1 38 3 50 15 51 8 0 104 1 213 1 185 1 197 2 197 19 0 11
-7 19 -17 19 -197 4 -533 4 -534 0z"/>
<path d="M4705 620 c-83 -19 -114 -37 -122 -68 -14 -58 78 -93 287 -107 173
-11 236 -26 246 -59 8 -26 -15 -42 -79 -56 -49 -10 -228 -14 -277 -6 -14 2
-47 7 -75 10 -27 3 -62 9 -77 11 -23 4 -28 2 -28 -14 0 -37 13 -39 260 -45
244 -7 371 15 407 70 14 22 14 26 -2 50 -33 51 -107 67 -390 88 -116 9 -160
29 -139 64 19 30 100 42 249 38 77 -3 161 -7 188 -11 43 -6 47 -5 47 14 0 12
-6 21 -12 22 -7 0 -22 3 -33 5 -11 3 -101 6 -200 8 -140 2 -195 -1 -250 -14z"/>
<path d="M1814 323 c-4 -13 -4 -27 0 -30 4 -4 36 -7 72 -7 l65 -1 -3 30 c-3
30 -4 30 -66 31 -58 0 -63 -1 -68 -23z"/>
<path d="M3250 315 c0 -30 0 -30 58 -30 65 1 82 8 77 33 -2 9 -4 19 -4 22 -1
3 -30 5 -66 5 l-65 1 0 -31z"/>
<path d="M4222 341 c-19 -12 -10 -51 13 -52 104 -5 110 -4 113 27 3 29 3 29
-56 30 -33 1 -64 -1 -70 -5z"/>
</g>
</svg>
